<?xml version="1.0" standalone="no"?>
<!DOCTYPE svg PUBLIC "-//W3C//DTD SVG 20010904//EN"
 "http://www.w3.org/TR/2001/REC-SVG-20010904/DTD/svg10.dtd">
<svg version="1.0" xmlns="http://www.w3.org/2000/svg"
 width="700.000000pt" height="700.000000pt" viewBox="0 0 700.000000 700.000000"
 preserveAspectRatio="xMidYMid meet">
<metadata>
Created by potrace 1.14, written by Peter Selinger 2001-2017
</metadata>
<g transform="translate(0.000000,700.000000) scale(0.100000,-0.100000)"
fill="#000000" stroke="none">
<path d="M95 5548 c36 -179 143 -728 150 -768 3 -14 7 -36 10 -50 2 -14 7 -36
9 -50 3 -14 14 -70 25 -125 11 -55 23 -116 26 -135 3 -19 10 -53 15 -75 5 -22
11 -57 14 -78 4 -22 11 -58 16 -80 10 -42 74 -372 85 -437 3 -19 10 -53 15
-75 5 -22 11 -54 15 -72 10 -58 182 -945 230 -1183 6 -31 47 -246 51 -267 2
-13 6 -33 8 -45 19 -96 81 -412 117 -595 l43 -223 503 0 503 0 5 22 c11 48
107 504 111 528 2 14 9 45 14 70 6 25 12 54 14 65 2 11 19 88 36 170 49 232
80 378 85 400 2 11 8 43 14 70 5 28 30 147 56 265 25 118 48 229 51 245 3 17
9 46 14 65 5 19 12 49 14 65 9 46 15 75 20 93 3 9 7 34 11 56 3 21 7 41 9 45
3 3 7 26 11 51 4 25 8 47 10 51 2 3 7 21 10 40 4 28 15 78 20 99 1 3 5 26 9
53 5 26 11 47 15 47 4 0 17 -51 30 -112 13 -62 29 -138 36 -168 8 -30 16 -71
19 -91 3 -20 8 -42 10 -50 3 -8 7 -25 10 -39 2 -14 16 -79 31 -145 14 -66 30
-140 35 -165 16 -76 19 -91 24 -108 3 -9 8 -30 11 -47 6 -36 5 -30 50 -240 20
-93 39 -181 41 -195 3 -14 7 -33 10 -42 3 -9 7 -27 9 -40 3 -13 7 -34 10 -48
3 -14 7 -34 9 -45 2 -11 12 -54 21 -95 9 -41 18 -86 21 -100 3 -14 10 -45 16
-70 5 -25 12 -58 14 -75 3 -16 7 -37 10 -45 4 -12 66 -299 80 -370 3 -14 14
-64 25 -112 10 -48 19 -90 19 -93 0 -3 227 -5 504 -5 565 0 507 -8 521 75 11
65 15 86 30 160 8 39 16 81 19 95 5 26 65 330 72 365 2 11 6 31 9 45 9 49 54
286 65 340 6 30 13 69 16 85 3 17 18 93 33 170 16 77 27 141 26 143 -2 2 -81
3 -177 3 l-174 1 0 687 0 687 311 0 310 0 17 85 c9 46 19 100 23 119 3 19 19
105 36 190 17 85 33 166 35 180 3 14 18 95 35 180 17 85 32 166 35 180 2 14 9
48 15 76 5 28 12 64 15 80 3 16 19 99 35 184 17 85 36 184 43 220 l13 65 -480
3 c-264 1 -482 1 -483 -1 -2 -2 -6 -19 -8 -38 -3 -19 -16 -101 -31 -184 -14
-82 -28 -161 -30 -175 -14 -86 -166 -1000 -170 -1020 -2 -14 -8 -52 -14 -85
-6 -33 -13 -76 -16 -95 -6 -37 -12 -72 -20 -120 -3 -16 -7 -43 -10 -60 -3 -16
-7 -45 -10 -62 -3 -18 -10 -58 -15 -88 -5 -30 -12 -71 -15 -90 -3 -19 -10 -60
-15 -90 -5 -30 -12 -71 -15 -90 -3 -19 -7 -46 -10 -60 -3 -14 -7 -38 -9 -55
-6 -39 -36 -212 -42 -245 -2 -14 -9 -59 -15 -100 -6 -41 -14 -78 -18 -82 -5
-6 -40 146 -67 292 -3 14 -14 70 -25 125 -12 55 -23 109 -25 120 -2 11 -22
110 -45 220 -22 110 -42 209 -44 220 -2 11 -10 53 -19 92 -9 40 -18 87 -21
105 -3 18 -10 49 -15 68 -5 19 -11 49 -14 65 -2 17 -10 55 -16 85 -6 30 -13
66 -16 80 -8 43 -51 255 -103 510 -28 135 -52 259 -55 275 -3 17 -19 91 -35
165 -16 74 -37 177 -46 228 l-18 92 -416 -2 c-269 -2 -416 -7 -416 -13 -1 -10
-16 -101 -21 -120 -3 -16 -86 -418 -90 -440 -2 -11 -26 -132 -53 -270 -27
-137 -52 -261 -55 -275 -2 -14 -32 -162 -66 -330 -34 -168 -64 -316 -67 -330
-5 -28 -63 -316 -68 -340 -1 -8 -20 -98 -40 -200 -20 -102 -38 -192 -40 -200
-1 -8 -13 -66 -25 -128 -13 -62 -24 -111 -26 -109 -2 2 -6 19 -8 38 -5 39 -24
154 -30 185 -5 24 -13 74 -22 132 -3 20 -7 44 -9 52 -2 8 -7 35 -10 60 -3 25
-10 69 -16 98 -6 29 -12 65 -14 80 -2 15 -8 54 -14 87 -31 183 -62 364 -67
395 -2 19 -11 71 -19 115 -8 44 -17 98 -20 120 -3 22 -8 51 -11 65 -12 64 -14
76 -19 110 -3 20 -7 45 -9 55 -2 11 -7 42 -10 68 -4 27 -9 59 -12 70 -4 23
-32 182 -39 227 -8 52 -14 88 -30 180 -9 52 -18 109 -21 125 -2 17 -9 55 -14
85 -11 67 -14 83 -39 235 -11 66 -22 132 -26 148 l-7 27 -482 0 -483 0 32
-162z"/>
<path d="M5119 5048 c-1 -2 -2 -258 -3 -570 0 -311 -4 -569 -7 -573 -4 -3
-216 -6 -473 -6 l-466 -1 0 -439 0 -438 408 0 c224 0 436 -1 472 -1 l65 0 -1
-582 c0 -321 3 -588 7 -593 5 -7 159 -10 436 -10 l428 0 3 593 2 592 98 0 c53
0 266 1 472 3 l375 2 0 437 0 437 -470 -1 -470 0 -3 576 -2 576 -435 0 c-239
0 -436 -1 -436 -2z"/>
</g>
</svg>
