<?xml version="1.0" standalone="no"?>
<!DOCTYPE svg PUBLIC "-//W3C//DTD SVG 20010904//EN"
 "http://www.w3.org/TR/2001/REC-SVG-20010904/DTD/svg10.dtd">
<svg version="1.0" xmlns="http://www.w3.org/2000/svg"
 width="700.000000pt" height="700.000000pt" viewBox="0 0 700.000000 700.000000"
 preserveAspectRatio="xMidYMid meet">
<metadata>
Created by potrace 1.14, written by Peter Selinger 2001-2017
</metadata>
<g transform="translate(0.000000,700.000000) scale(0.100000,-0.100000)"
fill="#000000" stroke="none">
<path d="M64 5400 c9 -48 55 -280 130 -660 25 -124 47 -236 49 -250 6 -32 35
-177 42 -210 5 -24 21 -105 31 -160 3 -14 23 -117 46 -230 22 -113 42 -214 43
-225 2 -11 20 -100 39 -198 20 -98 38 -191 41 -207 3 -16 16 -84 29 -152 14
-68 27 -134 30 -148 8 -41 48 -243 52 -265 2 -11 7 -33 10 -50 2 -16 16 -86
30 -155 14 -69 28 -138 30 -155 3 -16 7 -37 10 -45 3 -8 8 -31 10 -50 3 -19
34 -177 68 -350 l62 -315 442 0 c387 0 443 2 447 15 3 8 25 110 49 225 25 116
48 224 51 240 4 17 8 39 10 50 2 11 11 52 20 90 8 39 22 102 29 140 8 39 40
187 71 330 31 143 58 271 61 285 2 14 11 57 20 95 8 39 16 79 19 90 2 11 18
85 35 165 17 80 40 188 51 240 11 52 22 100 23 105 2 6 6 32 11 58 4 27 11 45
15 40 6 -6 75 -314 106 -468 5 -24 7 -37 28 -130 9 -38 18 -79 21 -90 3 -11
45 -209 95 -440 50 -231 99 -458 110 -505 10 -47 22 -98 25 -115 3 -16 24
-118 48 -225 l42 -195 445 0 444 0 13 60 c6 33 14 74 17 90 3 17 30 154 60
305 30 151 57 289 59 305 3 17 22 111 41 210 20 99 39 194 42 210 3 17 29 154
59 305 30 151 56 286 59 300 3 14 10 50 16 80 6 30 13 69 16 85 2 17 7 37 9
45 2 8 7 31 10 50 3 19 21 112 40 205 19 94 37 186 40 205 3 19 8 42 10 50 2
8 7 30 10 48 3 18 12 63 19 100 8 37 17 87 21 112 4 24 8 48 11 51 2 4 6 24
10 45 3 22 14 82 25 134 11 52 22 109 25 125 7 45 102 527 124 629 10 50 17
93 15 96 -2 3 -194 6 -426 5 l-422 0 -4 -25 c-2 -21 -18 -115 -37 -230 -3 -14
-7 -41 -10 -60 -3 -19 -10 -60 -16 -90 -6 -30 -12 -68 -15 -85 -2 -16 -6 -46
-10 -65 -6 -36 -13 -75 -20 -120 -2 -14 -13 -79 -25 -145 -11 -66 -22 -133
-25 -150 -3 -16 -8 -46 -11 -65 -9 -52 -12 -71 -18 -110 -3 -19 -8 -46 -11
-60 -3 -14 -7 -41 -10 -60 -3 -19 -9 -62 -15 -95 -24 -137 -32 -181 -34 -200
-2 -11 -6 -33 -9 -50 -3 -16 -9 -48 -12 -70 -3 -22 -7 -47 -10 -55 -2 -8 -6
-33 -10 -55 -3 -22 -12 -78 -20 -125 -8 -47 -17 -102 -21 -124 -3 -21 -7 -48
-10 -59 -2 -12 -6 -39 -10 -62 -3 -22 -7 -44 -8 -50 -1 -5 -8 -49 -16 -97 -7
-48 -16 -85 -20 -83 -4 3 -11 26 -15 52 -5 27 -10 53 -11 58 -2 6 -8 35 -13
65 -10 49 -21 101 -35 165 -2 11 -16 76 -30 145 -21 103 -44 214 -102 495 -2
11 -8 43 -13 70 -6 28 -35 172 -66 320 -31 149 -76 367 -100 485 -24 118 -51
251 -60 295 -10 44 -19 91 -21 105 -3 14 -10 50 -17 80 l-12 55 -355 1 c-195
0 -360 -1 -366 -3 -6 -2 -11 -9 -11 -16 -1 -7 -6 -37 -13 -67 -6 -30 -14 -68
-17 -85 -2 -16 -24 -125 -48 -241 -24 -116 -47 -224 -50 -240 -9 -52 -14 -77
-59 -299 -25 -121 -47 -232 -50 -247 -17 -80 -66 -327 -72 -353 -2 -11 -6 -31
-9 -45 -2 -14 -19 -92 -36 -175 -17 -82 -32 -161 -35 -175 -2 -14 -7 -36 -10
-50 -3 -14 -8 -35 -10 -47 -16 -90 -67 -338 -71 -342 -6 -8 -11 4 -17 44 -4
22 -20 121 -37 220 -17 99 -34 206 -40 238 -5 31 -13 83 -18 115 -8 47 -60
350 -75 442 -3 14 -7 41 -10 60 -6 37 -13 80 -21 120 -3 14 -8 42 -11 64 -3
21 -8 48 -10 60 -2 11 -8 48 -14 81 -5 33 -20 128 -35 210 -14 83 -28 161 -30
175 -5 33 -35 208 -40 240 -3 14 -14 84 -26 155 -11 72 -22 137 -25 145 -3 14
-55 16 -429 15 l-425 0 4 -25z"/>
<path d="M4384 5390 c-4 -19 -8 -37 -9 -40 -3 -14 -18 -88 -21 -110 -2 -14 -9
-45 -14 -70 -5 -25 -12 -56 -14 -70 -2 -14 -15 -83 -30 -155 -14 -71 -27 -141
-30 -155 -2 -14 -14 -72 -25 -130 -12 -58 -24 -117 -26 -133 -3 -15 -12 -59
-20 -97 -8 -38 -17 -84 -20 -102 -3 -18 -14 -76 -25 -128 -11 -52 -22 -111
-25 -130 -3 -19 -8 -42 -10 -50 -2 -8 -6 -28 -9 -44 -3 -16 -10 -52 -16 -80
-6 -28 -31 -157 -56 -286 -24 -129 -49 -254 -54 -277 -6 -25 -10 -386 -10
-900 l0 -859 428 1 428 0 -1 803 0 802 25 1 c14 0 297 1 630 2 l605 0 5 -804
5 -805 422 1 423 0 0 1925 0 1925 -425 0 -425 1 -2 -765 -3 -764 -628 -1
c-620 -1 -627 -1 -628 19 -1 11 -2 351 -4 755 -1 404 -3 740 -4 745 0 7 -77
10 -215 10 l-215 0 -7 -35z"/>
</g>
</svg>
