<?xml version="1.0" standalone="no"?>
<!DOCTYPE svg PUBLIC "-//W3C//DTD SVG 20010904//EN"
 "http://www.w3.org/TR/2001/REC-SVG-20010904/DTD/svg10.dtd">
<svg version="1.0" xmlns="http://www.w3.org/2000/svg"
 width="700.000000pt" height="700.000000pt" viewBox="0 0 700.000000 700.000000"
 preserveAspectRatio="xMidYMid meet">
<metadata>
Created by potrace 1.14, written by Peter Selinger 2001-2017
</metadata>
<g transform="translate(0.000000,700.000000) scale(0.100000,-0.100000)"
fill="#000000" stroke="none">
<path d="M851 5057 c-5 -5 -2 -37 5 -73 8 -36 16 -77 19 -92 3 -15 7 -40 11
-57 5 -31 119 -610 180 -915 19 -96 37 -186 39 -200 3 -14 19 -95 35 -180 17
-85 33 -166 36 -180 3 -14 16 -80 29 -147 14 -67 27 -137 30 -155 3 -18 12
-64 20 -103 15 -75 22 -109 30 -152 7 -38 24 -123 31 -153 9 -46 46 -234 54
-280 5 -25 11 -56 14 -70 10 -52 27 -136 32 -165 3 -16 9 -48 14 -70 5 -22 12
-56 15 -75 4 -19 8 -42 10 -50 2 -8 4 -18 4 -22 1 -5 165 -8 365 -8 l363 0 13
63 c7 34 14 70 16 79 2 10 6 26 8 35 13 57 99 462 102 483 3 14 7 33 10 42 3
9 7 27 9 40 3 13 32 154 66 313 33 160 63 301 65 314 3 12 11 51 19 85 8 33
16 72 19 86 2 14 10 48 16 75 13 55 15 68 26 134 9 56 13 46 48 -120 15 -68
31 -142 36 -164 14 -59 81 -366 87 -395 2 -14 10 -53 18 -88 8 -34 17 -74 20
-90 2 -15 16 -79 31 -142 14 -63 28 -126 30 -140 2 -14 8 -43 14 -65 11 -45
56 -257 64 -295 7 -40 46 -213 52 -232 5 -17 31 -18 367 -18 l362 0 43 218
c24 119 45 228 48 242 3 14 16 81 29 150 25 128 27 138 45 226 6 28 13 64 16
80 3 16 23 119 44 229 22 110 41 211 43 225 l4 25 621 3 621 2 0 -647 c0 -357
0 -672 1 -700 l0 -53 250 0 250 0 1 23 c4 128 0 3119 -4 3123 -8 8 -485 9
-493 1 -3 -3 -5 -298 -5 -656 l0 -651 -574 0 c-330 0 -575 4 -575 9 0 5 9 53
19 107 17 84 34 175 57 294 3 14 16 81 31 150 14 69 26 134 28 145 1 11 7 45
14 75 13 65 16 79 37 190 9 47 18 94 21 105 21 98 43 227 39 233 -3 5 -565 8
-676 3 -9 -1 -17 -11 -18 -26 -1 -13 -11 -75 -22 -137 -11 -62 -22 -128 -25
-145 -3 -18 -7 -46 -10 -63 -3 -16 -7 -42 -10 -57 -44 -269 -104 -618 -115
-678 -8 -46 -13 -73 -26 -160 -3 -16 -9 -52 -14 -80 -5 -27 -11 -66 -14 -85
-3 -20 -23 -142 -46 -272 -22 -129 -40 -241 -40 -248 0 -16 -13 -5 -16 13 -1
7 -11 63 -23 124 -12 62 -24 123 -27 135 -2 13 -6 32 -8 43 -14 61 -92 437
-126 605 -21 107 -55 272 -75 365 -34 164 -38 183 -51 250 -3 17 -14 71 -24
120 -11 50 -21 101 -24 115 -3 14 -10 48 -15 75 -6 28 -14 64 -17 80 l-6 30
-296 -1 c-331 -1 -303 5 -316 -75 -3 -19 -35 -180 -71 -359 -37 -179 -68 -336
-71 -350 -2 -14 -13 -68 -24 -120 -10 -52 -21 -106 -24 -120 -3 -14 -25 -126
-51 -250 -25 -124 -48 -236 -50 -250 -3 -14 -25 -121 -48 -239 l-43 -213 -14
73 c-7 41 -14 81 -15 89 -2 16 -3 20 -41 245 -14 83 -27 164 -30 180 -3 17
-11 66 -19 110 -8 44 -17 94 -19 110 -5 30 -10 60 -21 125 -3 19 -8 46 -10 60
-14 85 -38 229 -70 410 -14 81 -25 147 -29 175 -10 59 -15 91 -31 185 -9 52
-18 109 -21 125 -10 66 -16 85 -27 86 -106 5 -670 2 -676 -4z"/>
</g>
</svg>
